<mxfile host="app.diagrams.net" modified="2024-01-05T20:13:43.643Z" agent="Mozilla/5.0 (Macintosh; Intel Mac OS X 10.15; rv:121.0) Gecko/20100101 Firefox/121.0" etag="jmsCav7d8mYBHat0HtlU" version="22.1.16" type="google">
  <diagram name="Seite-1" id="_5eZ6YdEOg5IYWnAs5MQ">
    <mxGraphModel grid="1" page="1" gridSize="10" guides="1" tooltips="1" connect="1" arrows="1" fold="1" pageScale="1" pageWidth="2339" pageHeight="3300" math="0" shadow="0">
      <root>
        <mxCell id="0" />
        <object label="Panels" id="1">
          <mxCell parent="0" />
        </object>
        <mxCell id="4vuerB_JHzftp6wGzuZp-35" value="StrictDoc&#39;s high-level architecture" style="rounded=0;whiteSpace=wrap;html=1;fontSize=30;verticalAlign=top;align=left;" vertex="1" parent="1">
          <mxGeometry x="-140" y="-260" width="1940" height="980" as="geometry" />
        </mxCell>
        <mxCell id="cc9_CXweRUmJzaFviql6-21" style="rounded=0;orthogonalLoop=1;jettySize=auto;html=1;exitX=0;exitY=0.75;exitDx=0;exitDy=0;entryX=1;entryY=0.25;entryDx=0;entryDy=0;startArrow=none;startFill=0;edgeStyle=orthogonalEdgeStyle;" edge="1" parent="1" source="cc9_CXweRUmJzaFviql6-5" target="f487BN6W4Ddz-bBo1hhX-9">
          <mxGeometry relative="1" as="geometry" />
        </mxCell>
        <mxCell id="cc9_CXweRUmJzaFviql6-35" value="Export static HTML files" style="edgeLabel;html=1;align=center;verticalAlign=middle;resizable=0;points=[];fontSize=13;" connectable="0" vertex="1" parent="cc9_CXweRUmJzaFviql6-21">
          <mxGeometry x="0.2052" y="1" relative="1" as="geometry">
            <mxPoint x="-1" y="-26" as="offset" />
          </mxGeometry>
        </mxCell>
        <mxCell id="cc9_CXweRUmJzaFviql6-36" value="&lt;div style=&quot;font-size: 13px;&quot;&gt;Receive commands from a user&lt;/div&gt;" style="edgeLabel;html=1;align=center;verticalAlign=middle;resizable=0;points=[];fontSize=13;labelBackgroundColor=none;" connectable="0" vertex="1" parent="cc9_CXweRUmJzaFviql6-21">
          <mxGeometry x="0.2052" y="1" relative="1" as="geometry">
            <mxPoint x="-1" y="336" as="offset" />
          </mxGeometry>
        </mxCell>
        <mxCell id="cc9_CXweRUmJzaFviql6-25" style="edgeStyle=orthogonalEdgeStyle;rounded=0;orthogonalLoop=1;jettySize=auto;html=1;exitX=1;exitY=0.75;exitDx=0;exitDy=0;entryX=0.006;entryY=0.376;entryDx=0;entryDy=0;startArrow=none;startFill=0;entryPerimeter=0;" edge="1" parent="1" source="f487BN6W4Ddz-bBo1hhX-9" target="f487BN6W4Ddz-bBo1hhX-13">
          <mxGeometry relative="1" as="geometry" />
        </mxCell>
        <mxCell id="f487BN6W4Ddz-bBo1hhX-9" value="Web interface" style="rounded=0;whiteSpace=wrap;html=1;fontSize=18;verticalAlign=top;" vertex="1" parent="1">
          <mxGeometry x="-80" width="320" height="600" as="geometry" />
        </mxCell>
        <mxCell id="f487BN6W4Ddz-bBo1hhX-12" value="Static HTML pages" style="rounded=0;whiteSpace=wrap;html=1;fontSize=18;verticalAlign=top;align=center;labelPosition=center;verticalLabelPosition=middle;" vertex="1" parent="1">
          <mxGeometry x="-60" y="50" width="280" height="300" as="geometry" />
        </mxCell>
        <mxCell id="f487BN6W4Ddz-bBo1hhX-13" value="Web server (FastAPI)" style="rounded=0;whiteSpace=wrap;html=1;fontSize=18;verticalAlign=top;" vertex="1" parent="1">
          <mxGeometry x="460" y="360" width="340" height="240" as="geometry" />
        </mxCell>
        <mxCell id="f487BN6W4Ddz-bBo1hhX-14" value="SDoc backend" style="rounded=0;whiteSpace=wrap;html=1;fontSize=18;verticalAlign=top;" vertex="1" parent="1">
          <mxGeometry x="1490" y="-189" width="240" height="240" as="geometry" />
        </mxCell>
        <mxCell id="cc9_CXweRUmJzaFviql6-24" style="edgeStyle=orthogonalEdgeStyle;rounded=0;orthogonalLoop=1;jettySize=auto;html=1;exitX=1;exitY=0.5;exitDx=0;exitDy=0;entryX=0;entryY=0.75;entryDx=0;entryDy=0;" edge="1" parent="1" source="f487BN6W4Ddz-bBo1hhX-13" target="f487BN6W4Ddz-bBo1hhX-15">
          <mxGeometry relative="1" as="geometry">
            <Array as="points">
              <mxPoint x="940" y="480" />
              <mxPoint x="940" y="61" />
            </Array>
          </mxGeometry>
        </mxCell>
        <mxCell id="cc9_CXweRUmJzaFviql6-26" style="edgeStyle=orthogonalEdgeStyle;rounded=0;orthogonalLoop=1;jettySize=auto;html=1;exitX=1;exitY=0.5;exitDx=0;exitDy=0;entryX=0;entryY=0.5;entryDx=0;entryDy=0;startArrow=none;startFill=0;" edge="1" parent="1" target="f487BN6W4Ddz-bBo1hhX-14">
          <mxGeometry relative="1" as="geometry">
            <mxPoint x="1320" y="-69" as="sourcePoint" />
          </mxGeometry>
        </mxCell>
        <mxCell id="cc9_CXweRUmJzaFviql6-29" value="&lt;div&gt;SDoc objects&lt;/div&gt;&lt;div&gt;&amp;lt;-&amp;gt;&lt;/div&gt;&lt;div&gt;SDoc files&lt;/div&gt;&lt;div&gt;Read, parse, write&lt;br&gt;&lt;/div&gt;" style="edgeLabel;html=1;align=center;verticalAlign=middle;resizable=0;points=[];fontSize=13;labelBackgroundColor=none;" connectable="0" vertex="1" parent="cc9_CXweRUmJzaFviql6-26">
          <mxGeometry x="-0.4324" y="3" relative="1" as="geometry">
            <mxPoint x="41" y="-37" as="offset" />
          </mxGeometry>
        </mxCell>
        <mxCell id="4vuerB_JHzftp6wGzuZp-6" value="&lt;div&gt;SDoc objects&lt;/div&gt;&lt;div&gt;&amp;nbsp;&amp;lt;-&amp;gt;&amp;nbsp;&lt;/div&gt;&lt;div&gt;Source files&lt;/div&gt;&lt;div&gt;Read, parse, write&lt;br&gt;&lt;/div&gt;" style="edgeLabel;html=1;align=center;verticalAlign=middle;resizable=0;points=[];fontSize=13;labelBackgroundColor=none;" connectable="0" vertex="1" parent="cc9_CXweRUmJzaFviql6-26">
          <mxGeometry x="-0.4324" y="3" relative="1" as="geometry">
            <mxPoint x="61" y="302" as="offset" />
          </mxGeometry>
        </mxCell>
        <mxCell id="4vuerB_JHzftp6wGzuZp-23" value="&lt;div&gt;SDoc objects&lt;/div&gt;&lt;div&gt;&amp;nbsp;&amp;lt;-&amp;gt;&amp;nbsp;&lt;/div&gt;&lt;div&gt;ReqIF files&lt;/div&gt;&lt;div&gt;Read, parse, write&lt;br&gt;&lt;/div&gt;" style="edgeLabel;html=1;align=center;verticalAlign=middle;resizable=0;points=[];fontSize=13;labelBackgroundColor=none;" connectable="0" vertex="1" parent="cc9_CXweRUmJzaFviql6-26">
          <mxGeometry x="-0.4324" y="3" relative="1" as="geometry">
            <mxPoint x="52" y="522" as="offset" />
          </mxGeometry>
        </mxCell>
        <mxCell id="4vuerB_JHzftp6wGzuZp-28" value="&lt;div&gt;SDoc objects&lt;/div&gt;&lt;div&gt;&amp;nbsp;&amp;lt;-&amp;gt;&amp;nbsp;&lt;/div&gt;Other formats" style="edgeLabel;html=1;align=center;verticalAlign=middle;resizable=0;points=[];fontSize=13;labelBackgroundColor=none;" connectable="0" vertex="1" parent="cc9_CXweRUmJzaFviql6-26">
          <mxGeometry x="-0.4324" y="3" relative="1" as="geometry">
            <mxPoint x="42" y="682" as="offset" />
          </mxGeometry>
        </mxCell>
        <mxCell id="4vuerB_JHzftp6wGzuZp-5" style="edgeStyle=orthogonalEdgeStyle;rounded=0;orthogonalLoop=1;jettySize=auto;html=1;exitX=1;exitY=0.5;exitDx=0;exitDy=0;entryX=0;entryY=0.5;entryDx=0;entryDy=0;" edge="1" parent="1" target="4vuerB_JHzftp6wGzuZp-1">
          <mxGeometry relative="1" as="geometry">
            <mxPoint x="1320" y="-69" as="sourcePoint" />
          </mxGeometry>
        </mxCell>
        <mxCell id="4vuerB_JHzftp6wGzuZp-16" style="edgeStyle=orthogonalEdgeStyle;rounded=0;orthogonalLoop=1;jettySize=auto;html=1;exitX=0.5;exitY=1;exitDx=0;exitDy=0;entryX=0.5;entryY=0;entryDx=0;entryDy=0;" edge="1" parent="1" source="f487BN6W4Ddz-bBo1hhX-15" target="4vuerB_JHzftp6wGzuZp-11">
          <mxGeometry relative="1" as="geometry" />
        </mxCell>
        <mxCell id="4vuerB_JHzftp6wGzuZp-17" value="Get Git information" style="edgeLabel;html=1;align=center;verticalAlign=middle;resizable=0;points=[];fontSize=13;" connectable="0" vertex="1" parent="4vuerB_JHzftp6wGzuZp-16">
          <mxGeometry x="-0.4111" relative="1" as="geometry">
            <mxPoint x="70" y="7" as="offset" />
          </mxGeometry>
        </mxCell>
        <mxCell id="4vuerB_JHzftp6wGzuZp-27" style="edgeStyle=orthogonalEdgeStyle;rounded=0;orthogonalLoop=1;jettySize=auto;html=1;exitX=1;exitY=0.75;exitDx=0;exitDy=0;entryX=0;entryY=0.5;entryDx=0;entryDy=0;" edge="1" parent="1" source="f487BN6W4Ddz-bBo1hhX-15" target="4vuerB_JHzftp6wGzuZp-24">
          <mxGeometry relative="1" as="geometry">
            <Array as="points">
              <mxPoint x="1340" y="62" />
              <mxPoint x="1340" y="585" />
            </Array>
          </mxGeometry>
        </mxCell>
        <mxCell id="f487BN6W4Ddz-bBo1hhX-15" value="Traceability graph" style="rounded=0;whiteSpace=wrap;html=1;fontSize=18;verticalAlign=top;" vertex="1" parent="1">
          <mxGeometry x="960" y="-189" width="360" height="334" as="geometry" />
        </mxCell>
        <mxCell id="cc9_CXweRUmJzaFviql6-23" style="edgeStyle=orthogonalEdgeStyle;rounded=0;orthogonalLoop=1;jettySize=auto;html=1;exitX=1;exitY=0.5;exitDx=0;exitDy=0;entryX=0;entryY=0.5;entryDx=0;entryDy=0;startArrow=none;startFill=0;" edge="1" parent="1" source="f487BN6W4Ddz-bBo1hhX-17" target="f487BN6W4Ddz-bBo1hhX-15">
          <mxGeometry relative="1" as="geometry" />
        </mxCell>
        <mxCell id="cc9_CXweRUmJzaFviql6-32" value="&lt;div style=&quot;font-size: 13px;&quot;&gt;Get traceability data&lt;/div&gt;&lt;div style=&quot;font-size: 13px;&quot;&gt;to generate HTML&lt;/div&gt;" style="edgeLabel;html=1;align=center;verticalAlign=middle;resizable=0;points=[];fontSize=13;" connectable="0" vertex="1" parent="cc9_CXweRUmJzaFviql6-23">
          <mxGeometry x="-0.5545" relative="1" as="geometry">
            <mxPoint x="-20" y="25" as="offset" />
          </mxGeometry>
        </mxCell>
        <mxCell id="cc9_CXweRUmJzaFviql6-27" style="edgeStyle=orthogonalEdgeStyle;rounded=0;orthogonalLoop=1;jettySize=auto;html=1;exitX=0.5;exitY=0;exitDx=0;exitDy=0;entryX=0.5;entryY=1;entryDx=0;entryDy=0;startArrow=none;startFill=0;" edge="1" parent="1" source="f487BN6W4Ddz-bBo1hhX-13" target="f487BN6W4Ddz-bBo1hhX-17">
          <mxGeometry relative="1" as="geometry" />
        </mxCell>
        <mxCell id="f487BN6W4Ddz-bBo1hhX-17" value="HTML generators" style="rounded=0;whiteSpace=wrap;html=1;fontSize=18;verticalAlign=top;" vertex="1" parent="1">
          <mxGeometry x="460" y="50" width="340" height="250" as="geometry" />
        </mxCell>
        <mxCell id="4vuerB_JHzftp6wGzuZp-31" style="edgeStyle=orthogonalEdgeStyle;rounded=0;orthogonalLoop=1;jettySize=auto;html=1;exitX=1;exitY=0.5;exitDx=0;exitDy=0;entryX=0.007;entryY=0.422;entryDx=0;entryDy=0;entryPerimeter=0;" edge="1" parent="1" source="f487BN6W4Ddz-bBo1hhX-34" target="cc9_CXweRUmJzaFviql6-5">
          <mxGeometry relative="1" as="geometry" />
        </mxCell>
        <mxCell id="f487BN6W4Ddz-bBo1hhX-34" value="CLI interface" style="rounded=0;whiteSpace=wrap;html=1;fontSize=18;verticalAlign=top;" vertex="1" parent="1">
          <mxGeometry x="-80" y="-190" width="320" height="160" as="geometry" />
        </mxCell>
        <mxCell id="cc9_CXweRUmJzaFviql6-3" value="Dynamic HTML content" style="rounded=0;whiteSpace=wrap;html=1;fontSize=18;verticalAlign=top;align=center;labelPosition=center;verticalLabelPosition=middle;" vertex="1" parent="1">
          <mxGeometry x="-60" y="370" width="280" height="210" as="geometry" />
        </mxCell>
        <mxCell id="cc9_CXweRUmJzaFviql6-22" style="edgeStyle=orthogonalEdgeStyle;rounded=0;orthogonalLoop=1;jettySize=auto;html=1;exitX=1;exitY=0.5;exitDx=0;exitDy=0;entryX=0;entryY=0.281;entryDx=0;entryDy=0;entryPerimeter=0;" edge="1" parent="1" source="cc9_CXweRUmJzaFviql6-5" target="f487BN6W4Ddz-bBo1hhX-15">
          <mxGeometry relative="1" as="geometry" />
        </mxCell>
        <mxCell id="cc9_CXweRUmJzaFviql6-30" value="&lt;div&gt;Use and perform&lt;/div&gt;&lt;div&gt;transformations of&lt;/div&gt;&lt;div&gt;SDoc graph&lt;/div&gt;" style="edgeLabel;html=1;align=center;verticalAlign=middle;resizable=0;points=[];labelBackgroundColor=none;fontSize=13;" connectable="0" vertex="1" parent="cc9_CXweRUmJzaFviql6-22">
          <mxGeometry x="-0.5554" y="4" relative="1" as="geometry">
            <mxPoint x="44" y="-31" as="offset" />
          </mxGeometry>
        </mxCell>
        <mxCell id="cc9_CXweRUmJzaFviql6-31" value="&lt;div&gt;Use and perform&lt;/div&gt;&lt;div&gt;transformations of&lt;/div&gt;&lt;div&gt;SDoc graph&lt;/div&gt;" style="edgeLabel;html=1;align=center;verticalAlign=middle;resizable=0;points=[];labelBackgroundColor=none;fontSize=13;" connectable="0" vertex="1" parent="cc9_CXweRUmJzaFviql6-22">
          <mxGeometry x="-0.5554" y="4" relative="1" as="geometry">
            <mxPoint x="35" y="549" as="offset" />
          </mxGeometry>
        </mxCell>
        <mxCell id="cc9_CXweRUmJzaFviql6-33" value="&lt;div&gt;Execute commands&lt;/div&gt;&lt;div&gt;Report progress to command line&lt;br&gt;&lt;/div&gt;" style="edgeLabel;html=1;align=center;verticalAlign=middle;resizable=0;points=[];labelBackgroundColor=none;fontSize=13;" connectable="0" vertex="1" parent="cc9_CXweRUmJzaFviql6-22">
          <mxGeometry x="-0.5554" y="4" relative="1" as="geometry">
            <mxPoint x="-487" y="-51" as="offset" />
          </mxGeometry>
        </mxCell>
        <mxCell id="cc9_CXweRUmJzaFviql6-38" value="Generate HTML" style="edgeLabel;html=1;align=center;verticalAlign=middle;resizable=0;points=[];labelBackgroundColor=none;fontSize=13;" connectable="0" vertex="1" parent="cc9_CXweRUmJzaFviql6-22">
          <mxGeometry x="-0.5554" y="4" relative="1" as="geometry">
            <mxPoint x="-269" y="121" as="offset" />
          </mxGeometry>
        </mxCell>
        <mxCell id="cc9_CXweRUmJzaFviql6-39" value="Generate HTML" style="edgeLabel;html=1;align=center;verticalAlign=middle;resizable=0;points=[];labelBackgroundColor=none;fontSize=13;" connectable="0" vertex="1" parent="cc9_CXweRUmJzaFviql6-22">
          <mxGeometry x="-0.5554" y="4" relative="1" as="geometry">
            <mxPoint x="-194" y="421" as="offset" />
          </mxGeometry>
        </mxCell>
        <mxCell id="cc9_CXweRUmJzaFviql6-28" style="edgeStyle=orthogonalEdgeStyle;rounded=0;orthogonalLoop=1;jettySize=auto;html=1;exitX=0.5;exitY=1;exitDx=0;exitDy=0;startArrow=none;startFill=0;" edge="1" parent="1" source="cc9_CXweRUmJzaFviql6-5" target="f487BN6W4Ddz-bBo1hhX-17">
          <mxGeometry relative="1" as="geometry" />
        </mxCell>
        <mxCell id="cc9_CXweRUmJzaFviql6-5" value="CLI actions" style="rounded=0;whiteSpace=wrap;html=1;fontSize=18;verticalAlign=top;" vertex="1" parent="1">
          <mxGeometry x="460" y="-190" width="340" height="190" as="geometry" />
        </mxCell>
        <mxCell id="4vuerB_JHzftp6wGzuZp-1" value="Source files" style="rounded=0;whiteSpace=wrap;html=1;fontSize=18;verticalAlign=top;" vertex="1" parent="1">
          <mxGeometry x="1490" y="71" width="240" height="240" as="geometry" />
        </mxCell>
        <mxCell id="4vuerB_JHzftp6wGzuZp-11" value="Git engine" style="rounded=0;whiteSpace=wrap;html=1;fontSize=18;verticalAlign=top;" vertex="1" parent="1">
          <mxGeometry x="1070" y="205" width="140" height="160" as="geometry" />
        </mxCell>
        <mxCell id="4vuerB_JHzftp6wGzuZp-18" value="ReqIF" style="rounded=0;whiteSpace=wrap;html=1;fontSize=18;verticalAlign=top;" vertex="1" parent="1">
          <mxGeometry x="1490" y="335" width="240" height="150" as="geometry" />
        </mxCell>
        <mxCell id="4vuerB_JHzftp6wGzuZp-22" style="edgeStyle=orthogonalEdgeStyle;rounded=0;orthogonalLoop=1;jettySize=auto;html=1;exitX=1;exitY=0.5;exitDx=0;exitDy=0;entryX=0;entryY=0.5;entryDx=0;entryDy=0;" edge="1" parent="1" source="f487BN6W4Ddz-bBo1hhX-15" target="4vuerB_JHzftp6wGzuZp-18">
          <mxGeometry relative="1" as="geometry">
            <Array as="points">
              <mxPoint x="1360" y="-22" />
              <mxPoint x="1360" y="410" />
            </Array>
          </mxGeometry>
        </mxCell>
        <mxCell id="4vuerB_JHzftp6wGzuZp-24" value="Other formats" style="rounded=0;whiteSpace=wrap;html=1;fontSize=18;verticalAlign=top;" vertex="1" parent="1">
          <mxGeometry x="1490" y="510" width="240" height="150" as="geometry" />
        </mxCell>
        <mxCell id="4vuerB_JHzftp6wGzuZp-32" style="edgeStyle=orthogonalEdgeStyle;rounded=0;orthogonalLoop=1;jettySize=auto;html=1;exitX=1;exitY=0.75;exitDx=0;exitDy=0;entryX=0.006;entryY=0.376;entryDx=0;entryDy=0;startArrow=none;startFill=0;entryPerimeter=0;" edge="1" parent="1">
          <mxGeometry relative="1" as="geometry">
            <mxPoint x="462" y="530" as="sourcePoint" />
            <mxPoint x="240" y="530" as="targetPoint" />
          </mxGeometry>
        </mxCell>
        <mxCell id="4vuerB_JHzftp6wGzuZp-33" value="&lt;div&gt;Render static HTML,&lt;/div&gt;&lt;div&gt;write the updated HTML back&lt;/div&gt;" style="edgeLabel;html=1;align=center;verticalAlign=middle;resizable=0;points=[];fontSize=13;" connectable="0" vertex="1" parent="4vuerB_JHzftp6wGzuZp-32">
          <mxGeometry x="0.0043" y="-2" relative="1" as="geometry">
            <mxPoint y="-18" as="offset" />
          </mxGeometry>
        </mxCell>
        <object label="Blocks" id="f487BN6W4Ddz-bBo1hhX-10">
          <mxCell parent="0" />
        </object>
        <mxCell id="f487BN6W4Ddz-bBo1hhX-1" value="Form objects" style="rounded=0;whiteSpace=wrap;html=1;fillColor=#f5f5f5;fontColor=#333333;strokeColor=#666666;fontStyle=1" vertex="1" parent="f487BN6W4Ddz-bBo1hhX-10">
          <mxGeometry x="690" y="410" width="80" height="80" as="geometry" />
        </mxCell>
        <mxCell id="f487BN6W4Ddz-bBo1hhX-2" value="&lt;b&gt;SDoc files&lt;br&gt;&lt;/b&gt;" style="rounded=0;whiteSpace=wrap;html=1;fillColor=#f5f5f5;fontColor=#333333;strokeColor=#666666;" vertex="1" parent="f487BN6W4Ddz-bBo1hhX-10">
          <mxGeometry x="1570" y="-49" width="80" height="80" as="geometry" />
        </mxCell>
        <mxCell id="f487BN6W4Ddz-bBo1hhX-4" value="Jinja templates" style="rounded=0;whiteSpace=wrap;html=1;fillColor=#f5f5f5;fontColor=#333333;strokeColor=#666666;fontStyle=1" vertex="1" parent="f487BN6W4Ddz-bBo1hhX-10">
          <mxGeometry x="490" y="190" width="80" height="80" as="geometry" />
        </mxCell>
        <mxCell id="f487BN6W4Ddz-bBo1hhX-5" value="&lt;div&gt;FastAPI endpoint,&lt;/div&gt;&lt;div&gt;e.g.,&lt;/div&gt;&lt;div&gt;GET /search&lt;br&gt;&lt;/div&gt;" style="rounded=0;whiteSpace=wrap;html=1;fillColor=#f5f5f5;fontColor=#333333;strokeColor=#666666;fontStyle=1" vertex="1" parent="f487BN6W4Ddz-bBo1hhX-10">
          <mxGeometry x="490" y="410" width="80" height="80" as="geometry" />
        </mxCell>
        <mxCell id="f487BN6W4Ddz-bBo1hhX-6" value="&lt;div&gt;&lt;b&gt;SDReader/&lt;/b&gt;&lt;/div&gt;&lt;div&gt;&lt;b&gt;SDWriter&lt;/b&gt;&lt;/div&gt;" style="rounded=0;whiteSpace=wrap;html=1;fillColor=#f5f5f5;fontColor=#333333;strokeColor=#666666;" vertex="1" parent="f487BN6W4Ddz-bBo1hhX-10">
          <mxGeometry x="1620" y="-149" width="80" height="80" as="geometry" />
        </mxCell>
        <mxCell id="f487BN6W4Ddz-bBo1hhX-7" value="&lt;b&gt;Traceability Index&lt;br&gt;&lt;/b&gt;" style="rounded=0;whiteSpace=wrap;html=1;fillColor=#f5f5f5;fontColor=#333333;strokeColor=#666666;" vertex="1" parent="f487BN6W4Ddz-bBo1hhX-10">
          <mxGeometry x="1100" y="-139" width="80" height="80" as="geometry" />
        </mxCell>
        <mxCell id="f487BN6W4Ddz-bBo1hhX-3" value="HTML" style="rounded=0;whiteSpace=wrap;html=1;fillColor=#f5f5f5;fontColor=#333333;strokeColor=#666666;fontStyle=1" vertex="1" parent="f487BN6W4Ddz-bBo1hhX-10">
          <mxGeometry x="-30" y="130" width="80" height="80" as="geometry" />
        </mxCell>
        <mxCell id="f487BN6W4Ddz-bBo1hhX-11" value="&lt;div&gt;Turbo/Stimulus&lt;/div&gt;&lt;div&gt;&lt;br&gt;&lt;/div&gt;&lt;div&gt;(AJAX)&lt;br&gt;&lt;/div&gt;" style="rounded=0;whiteSpace=wrap;html=1;fillColor=#f5f5f5;fontColor=#333333;strokeColor=#666666;fontStyle=1" vertex="1" parent="f487BN6W4Ddz-bBo1hhX-10">
          <mxGeometry x="-30" y="450" width="80" height="80" as="geometry" />
        </mxCell>
        <mxCell id="f487BN6W4Ddz-bBo1hhX-16" value="&lt;div&gt;&lt;b&gt;Iterators&lt;/b&gt;&lt;/div&gt;&lt;div&gt;&lt;b&gt;(document- and document tree-level)&lt;br&gt;&lt;/b&gt;&lt;/div&gt;" style="rounded=0;whiteSpace=wrap;html=1;fillColor=#f5f5f5;fontColor=#333333;strokeColor=#666666;" vertex="1" parent="f487BN6W4Ddz-bBo1hhX-10">
          <mxGeometry x="1100" y="-49" width="80" height="80" as="geometry" />
        </mxCell>
        <mxCell id="f487BN6W4Ddz-bBo1hhX-18" value="&lt;b&gt;RST renderer&lt;br&gt;&lt;/b&gt;" style="rounded=0;whiteSpace=wrap;html=1;fillColor=#f5f5f5;fontColor=#333333;strokeColor=#666666;" vertex="1" parent="f487BN6W4Ddz-bBo1hhX-10">
          <mxGeometry x="590" y="190" width="80" height="80" as="geometry" />
        </mxCell>
        <mxCell id="f487BN6W4Ddz-bBo1hhX-19" value="&lt;b&gt;Link renderer&lt;br&gt;&lt;/b&gt;" style="rounded=0;whiteSpace=wrap;html=1;fillColor=#f5f5f5;fontColor=#333333;strokeColor=#666666;" vertex="1" parent="f487BN6W4Ddz-bBo1hhX-10">
          <mxGeometry x="690" y="190" width="80" height="80" as="geometry" />
        </mxCell>
        <mxCell id="f487BN6W4Ddz-bBo1hhX-20" value="&lt;div&gt;Javascript&lt;/div&gt;&lt;div&gt;&lt;br&gt;&lt;/div&gt;&lt;div&gt;(Static HTML subset)&lt;br&gt;&lt;/div&gt;" style="rounded=0;whiteSpace=wrap;html=1;fillColor=#f5f5f5;fontColor=#333333;strokeColor=#666666;fontStyle=1" vertex="1" parent="f487BN6W4Ddz-bBo1hhX-10">
          <mxGeometry x="100" y="130" width="80" height="80" as="geometry" />
        </mxCell>
        <mxCell id="f487BN6W4Ddz-bBo1hhX-21" value="Screen generators" style="rounded=0;whiteSpace=wrap;html=1;fillColor=#f5f5f5;fontColor=#333333;strokeColor=#666666;fontStyle=1" vertex="1" parent="f487BN6W4Ddz-bBo1hhX-10">
          <mxGeometry x="490" y="90" width="80" height="80" as="geometry" />
        </mxCell>
        <mxCell id="f487BN6W4Ddz-bBo1hhX-27" value="&lt;b&gt;Transforms&lt;/b&gt;" style="rounded=0;whiteSpace=wrap;html=1;fillColor=#f5f5f5;fontColor=#333333;strokeColor=#666666;" vertex="1" parent="f487BN6W4Ddz-bBo1hhX-10">
          <mxGeometry x="990" y="-139" width="80" height="80" as="geometry" />
        </mxCell>
        <mxCell id="f487BN6W4Ddz-bBo1hhX-31" value="&lt;div&gt;&lt;b&gt;SDoc objects&lt;/b&gt;&lt;/div&gt;&lt;div&gt;&lt;b&gt;&lt;br&gt;&lt;/b&gt;&lt;/div&gt;&lt;div&gt;&lt;b&gt;(Doc., Sect., Req, etc.)&lt;/b&gt;&lt;/div&gt;" style="rounded=0;whiteSpace=wrap;html=1;fillColor=#f5f5f5;fontColor=#333333;strokeColor=#666666;" vertex="1" parent="f487BN6W4Ddz-bBo1hhX-10">
          <mxGeometry x="1520" y="-149" width="80" height="80" as="geometry" />
        </mxCell>
        <mxCell id="f487BN6W4Ddz-bBo1hhX-35" value="CLI commands" style="rounded=0;whiteSpace=wrap;html=1;fillColor=#f5f5f5;fontColor=#333333;strokeColor=#666666;fontStyle=1" vertex="1" parent="f487BN6W4Ddz-bBo1hhX-10">
          <mxGeometry x="-60" y="-140" width="80" height="80" as="geometry" />
        </mxCell>
        <mxCell id="f487BN6W4Ddz-bBo1hhX-36" value="Command-related Action objects" style="rounded=0;whiteSpace=wrap;html=1;fillColor=#f5f5f5;fontColor=#333333;strokeColor=#666666;fontStyle=1" vertex="1" parent="f487BN6W4Ddz-bBo1hhX-10">
          <mxGeometry x="500" y="-140" width="80" height="80" as="geometry" />
        </mxCell>
        <mxCell id="cc9_CXweRUmJzaFviql6-1" value="&lt;div&gt;Turbo streams&lt;/div&gt;&lt;div&gt;&lt;br&gt;&lt;/div&gt;&lt;div&gt;(Jinja partials)&lt;br&gt;&lt;/div&gt;" style="rounded=0;whiteSpace=wrap;html=1;fillColor=#f5f5f5;fontColor=#333333;strokeColor=#666666;fontStyle=1" vertex="1" parent="f487BN6W4Ddz-bBo1hhX-10">
          <mxGeometry x="490" y="500" width="80" height="80" as="geometry" />
        </mxCell>
        <mxCell id="cc9_CXweRUmJzaFviql6-19" value="CLI commands validation" style="rounded=0;whiteSpace=wrap;html=1;fillColor=#f5f5f5;fontColor=#333333;strokeColor=#666666;fontStyle=1" vertex="1" parent="f487BN6W4Ddz-bBo1hhX-10">
          <mxGeometry x="40" y="-140" width="80" height="80" as="geometry" />
        </mxCell>
        <mxCell id="4vuerB_JHzftp6wGzuZp-2" value="&lt;b&gt;Source files&lt;br&gt;&lt;br&gt;(*.c/h, *.py, *.rst, etc.)&lt;br&gt;&lt;/b&gt;" style="rounded=0;whiteSpace=wrap;html=1;fillColor=#f5f5f5;fontColor=#333333;strokeColor=#666666;" vertex="1" parent="f487BN6W4Ddz-bBo1hhX-10">
          <mxGeometry x="1570" y="211" width="80" height="80" as="geometry" />
        </mxCell>
        <mxCell id="4vuerB_JHzftp6wGzuZp-3" value="&lt;b&gt;Source files traceability reader&lt;br&gt;&lt;/b&gt;" style="rounded=0;whiteSpace=wrap;html=1;fillColor=#f5f5f5;fontColor=#333333;strokeColor=#666666;" vertex="1" parent="f487BN6W4Ddz-bBo1hhX-10">
          <mxGeometry x="1620" y="111" width="80" height="80" as="geometry" />
        </mxCell>
        <mxCell id="4vuerB_JHzftp6wGzuZp-4" value="&lt;div&gt;&lt;b&gt;SDoc objects&lt;/b&gt;&lt;/div&gt;&lt;div&gt;&lt;b&gt;&lt;br&gt;&lt;/b&gt;&lt;/div&gt;&lt;div&gt;&lt;b&gt;(RangeMarker,&lt;/b&gt;&lt;/div&gt;&lt;div&gt;&lt;b&gt;source file info)&lt;/b&gt;&lt;/div&gt;" style="rounded=0;whiteSpace=wrap;html=1;fillColor=#f5f5f5;fontColor=#333333;strokeColor=#666666;" vertex="1" parent="f487BN6W4Ddz-bBo1hhX-10">
          <mxGeometry x="1520" y="111" width="80" height="80" as="geometry" />
        </mxCell>
        <mxCell id="4vuerB_JHzftp6wGzuZp-7" value="Analyzers" style="rounded=0;whiteSpace=wrap;html=1;fillColor=#f5f5f5;fontColor=#333333;strokeColor=#666666;fontStyle=1" vertex="1" parent="f487BN6W4Ddz-bBo1hhX-10">
          <mxGeometry x="990" y="-49" width="80" height="80" as="geometry" />
        </mxCell>
        <mxCell id="4vuerB_JHzftp6wGzuZp-8" value="&lt;div&gt;&lt;b&gt;Validations&lt;br&gt;&lt;/b&gt;&lt;/div&gt;&lt;div&gt;&lt;b&gt;&lt;br&gt;&lt;/b&gt;&lt;/div&gt;&lt;div&gt;&lt;b&gt;(cycle detection etc.)&lt;/b&gt;&lt;/div&gt;" style="rounded=0;whiteSpace=wrap;html=1;fillColor=#f5f5f5;fontColor=#333333;strokeColor=#666666;" vertex="1" parent="f487BN6W4Ddz-bBo1hhX-10">
          <mxGeometry x="1210" y="-139" width="80" height="80" as="geometry" />
        </mxCell>
        <mxCell id="4vuerB_JHzftp6wGzuZp-9" value="&lt;b&gt;Query engine&lt;/b&gt;" style="rounded=0;whiteSpace=wrap;html=1;fillColor=#f5f5f5;fontColor=#333333;strokeColor=#666666;" vertex="1" parent="f487BN6W4Ddz-bBo1hhX-10">
          <mxGeometry x="1210" y="-49" width="80" height="80" as="geometry" />
        </mxCell>
        <mxCell id="4vuerB_JHzftp6wGzuZp-10" value="Export to non-HTML formats" style="rounded=0;whiteSpace=wrap;html=1;fillColor=#f5f5f5;fontColor=#333333;strokeColor=#666666;fontStyle=1" vertex="1" parent="f487BN6W4Ddz-bBo1hhX-10">
          <mxGeometry x="600" y="-140" width="80" height="80" as="geometry" />
        </mxCell>
        <mxCell id="4vuerB_JHzftp6wGzuZp-13" value="Diff engine" style="rounded=0;whiteSpace=wrap;html=1;fillColor=#f5f5f5;fontColor=#333333;strokeColor=#666666;fontStyle=1" vertex="1" parent="f487BN6W4Ddz-bBo1hhX-10">
          <mxGeometry x="990" y="45" width="80" height="80" as="geometry" />
        </mxCell>
        <mxCell id="4vuerB_JHzftp6wGzuZp-14" value="Git client" style="rounded=0;whiteSpace=wrap;html=1;fillColor=#f5f5f5;fontColor=#333333;strokeColor=#666666;fontStyle=1" vertex="1" parent="f487BN6W4Ddz-bBo1hhX-10">
          <mxGeometry x="1100" y="255" width="80" height="80" as="geometry" />
        </mxCell>
        <mxCell id="4vuerB_JHzftp6wGzuZp-20" value="&lt;b&gt;.reqif files&lt;br&gt;&lt;/b&gt;" style="rounded=0;whiteSpace=wrap;html=1;fillColor=#f5f5f5;fontColor=#333333;strokeColor=#666666;" vertex="1" parent="f487BN6W4Ddz-bBo1hhX-10">
          <mxGeometry x="1620" y="375" width="80" height="80" as="geometry" />
        </mxCell>
        <mxCell id="4vuerB_JHzftp6wGzuZp-21" value="&lt;div&gt;&lt;b&gt;ReqIF library&lt;/b&gt;&lt;/div&gt;" style="rounded=0;whiteSpace=wrap;html=1;fillColor=#f5f5f5;fontColor=#333333;strokeColor=#666666;" vertex="1" parent="f487BN6W4Ddz-bBo1hhX-10">
          <mxGeometry x="1520" y="375" width="80" height="80" as="geometry" />
        </mxCell>
        <mxCell id="4vuerB_JHzftp6wGzuZp-25" value="&lt;b&gt;Excel, etc.&lt;br&gt;&lt;/b&gt;" style="rounded=0;whiteSpace=wrap;html=1;fillColor=#f5f5f5;fontColor=#333333;strokeColor=#666666;" vertex="1" parent="f487BN6W4Ddz-bBo1hhX-10">
          <mxGeometry x="1620" y="550" width="80" height="80" as="geometry" />
        </mxCell>
        <mxCell id="4vuerB_JHzftp6wGzuZp-26" value="&lt;b&gt;SPDX&lt;/b&gt;" style="rounded=0;whiteSpace=wrap;html=1;fillColor=#f5f5f5;fontColor=#333333;strokeColor=#666666;" vertex="1" parent="f487BN6W4Ddz-bBo1hhX-10">
          <mxGeometry x="1520" y="550" width="80" height="80" as="geometry" />
        </mxCell>
        <mxCell id="4vuerB_JHzftp6wGzuZp-34" value="HTML updates" style="rounded=0;whiteSpace=wrap;html=1;fillColor=#f5f5f5;fontColor=#333333;strokeColor=#666666;fontStyle=1" vertex="1" parent="f487BN6W4Ddz-bBo1hhX-10">
          <mxGeometry x="90" y="450" width="80" height="80" as="geometry" />
        </mxCell>
        <mxCell id="4vuerB_JHzftp6wGzuZp-36" value="&lt;div&gt;&lt;b&gt;JS files&lt;/b&gt;&lt;/div&gt;&lt;div&gt;&lt;b&gt;&lt;br&gt;&lt;/b&gt;&lt;/div&gt;&lt;div&gt;&lt;b&gt;(incl. third-party)&lt;br&gt;&lt;/b&gt;&lt;/div&gt;" style="rounded=0;whiteSpace=wrap;html=1;fillColor=#f5f5f5;fontColor=#333333;strokeColor=#666666;" vertex="1" parent="f487BN6W4Ddz-bBo1hhX-10">
          <mxGeometry x="590" y="90" width="80" height="80" as="geometry" />
        </mxCell>
        <mxCell id="4vuerB_JHzftp6wGzuZp-37" value="&lt;b&gt;CSS&lt;/b&gt;" style="rounded=0;whiteSpace=wrap;html=1;fillColor=#f5f5f5;fontColor=#333333;strokeColor=#666666;" vertex="1" parent="f487BN6W4Ddz-bBo1hhX-10">
          <mxGeometry x="690" y="90" width="80" height="80" as="geometry" />
        </mxCell>
      </root>
    </mxGraphModel>
  </diagram>
</mxfile>
